# xmcd
#
# Track frame offsets: 
#        150
#        18896
#        32736
#        45510
#        57595
#        75729
#        93113
#        107469
#
# Disc length: 1618 seconds
#
# Revision: 0
# Processed by: cddbd v1.5.2PL0 Copyright (c) Steve Scherf et al.
# Submitted via: ExactAudioCopy v1.0b1
#
DISCID=53065008
DTITLE=Alabama - Deuces Wild
DYEAR=1977
DGENRE=Country
TTITLE0=I Wanna Be With You Tonight
TTITLE1=Get It While It's Hot
TTITLE2=Lifetime Memories
TTITLE3=Loving You Is Killing Me
TTITLE4=Lady Down On Love
TTITLE5=Back To Alabam'
TTITLE6=Some Other Place, Some Other Time, Some Other Love
TTITLE7=Tennessee River And A Mountain Man
EXTD=
EXTT0=
EXTT1=
EXTT2=
EXTT3=
EXTT4=
EXTT5=
EXTT6=
EXTT7=
PLAYORDER=
